<svg xmlns="http://www.w3.org/2000/svg" viewBox="0 0 389.14 383.1"><defs><style>.cls-1{fill:#efe30e;}.cls-2{fill:#eae87f;}.cls-3{fill:#eae972;}.cls-4{fill:#f1e40a;}.cls-5{fill:#242111;}.cls-6{fill:#5a5723;}.cls-7{fill:#b0ac31;}.cls-8{fill:#b3b135;}.cls-9{fill:#c6c13a;}.cls-10{fill:#12120d;}.cls-11{fill:#63622a;}.cls-12{fill:#cbc72b;}.cls-13{fill:#d0cb28;}.cls-14{fill:#403f19;}.cls-15{fill:#45441d;}.cls-16{fill:#8c8833;}.cls-17{fill:#8a8633;}.cls-18{fill:#969034;}.cls-19{fill:#a29a35;}.cls-20{fill:#bbb634;}.cls-21{fill:#9c9635;}.cls-22{fill:#d1cb33;}.cls-23{fill:#e7de19;}.cls-24{fill:#e6dd18;}.cls-25{fill:#eae015;}.cls-26{fill:#e8de16;}.cls-27{fill:#5a5724;}.cls-28{fill:#e1d81d;}.cls-29{fill:#eae017;}.cls-30{fill:#e2d81d;}.cls-31{fill:#dcd521;}.cls-32{fill:#706d2f;}.cls-33{fill:#858233;}.cls-34{fill:#514c21;}.cls-35{fill:#73712e;}.cls-36{fill:#6c6c2d;}.cls-37{fill:#7d7b32;}.cls-38{fill:#4c491f;}.cls-39{fill:#63602a;}.cls-40{fill:#302c14;}.cls-41{fill:#585524;}.cls-42{fill:#3a3917;}.cls-43{fill:#e8e11a;}.cls-44{fill:#7f7b32;}.cls-45{fill:#7f7d34;}.cls-46{fill:#e3db20;}.cls-47{fill:#e0d922;}.cls-48{fill:#e8e01a;}.cls-49{fill:#999a50;}.cls-50{fill:#595524;}.cls-51{fill:#e4dd1c;}.cls-52{fill:#8d8a39;}.cls-53{fill:#e1d921;}.cls-54{fill:#d8d126;}.cls-55{fill:#61602a;}.cls-56{fill:#5b5a24;}.cls-57{fill:#5a5a25;}.cls-58{fill:#2e2d15;}.cls-59{fill:#313016;}.cls-60{fill:#9b9d47;}.cls-61{fill:#2f2d15;}.cls-62{fill:#ddd632;}.cls-63{fill:#a6a537;}.cls-64{fill:#8d8a37;}.cls-65{fill:#cfca30;}</style></defs><g id="Layer_2" data-name="Layer 2"><g id="Layer_1-2" data-name="Layer 1"><path class="cls-1" d="M13.34,126l5-8.33A129.29,129.29,0,0,0,23,93.29c.91-11.62,4.57-22.2,14-30.53,8-7,16-14.25,22.08-23.23h0c15.09-4.61,26.43-14.06,35-27.08h0c21.39-5.35,43.29-9.6,65.09-9.88,21.34-.27,42.83.31,64.25.51,11.16.1,22.2.19,32.88,3.89,19.14,7.75,35.47,20.59,53.91,29.81,10.35,5.17,21.81,7.54,31.59,14,4.67,3.11,8.89,5.87,10.88,11.2,8.47,22.67,23.74,42.4,29.23,66.32,6.3,27.43,12.38,54.91.23,82.55-2.11,4.8-4.32,11-3.06,15.58,5.8,21.16-6.56,36.6-16.45,52-11.3,17.61-23.88,34.73-39.74,48.79-21.47,19-43.53,35.24-72,45.38-29.3,10.43-58.35,11-87.23,10.21-20.74-.55-42.52-7.35-59.56-23.51C93,348.8,80,340,67.17,331.17c-20.87-14.34-41.64-31.69-52.43-55.68-6.87-15.28-8.93-32.94-8.93-50.06,0-9.52-.54-18.65-3.5-27.73-5-15.24-.9-30.09,2.61-44.92C9.19,144.3,11.54,135.22,13.34,126Z"/><path class="cls-2" d="M255.85,9.79c-31.54-4.95-63.33-1.08-95-2.34C150,7,138.54,9,128,12.14c-11.48,3.39-22.8,3.54-34.38,3.14,12.92-1.55,21.55-14,35.23-13.84,3.73,0,8.73-5,9.45,3.51.16,1.93,2.86,1.7,4.57,1.31,29.87-6.68,60.06,1.22,90-1.92C240.86,3.5,249,4.6,255.85,9.79Z"/><path class="cls-2" d="M93.63,15.27c-1.83,14.36-21.86,29.86-35,27.08C67.36,29.54,78.44,19.75,93.63,15.27Z"/><path class="cls-2" d="M58.63,42.35C55.74,53,46.5,58.51,39.28,65.26,29.11,74.78,24.72,86.05,23.91,99.39c-.45,7.44-.88,14.93-6,21.06,1.29-10.2,2.37-20.42,3.93-30.57C25.3,67.29,44.33,56.62,58.63,42.35Z"/><path class="cls-3" d="M12.89,128.78c4.76,11.31,0,19.64-8.42,26.82C4.9,145.92,4.7,136,12.89,128.78Z"/><path class="cls-4" d="M306.86,282.46c-.83-8.74-.61-18.7,10.75-26.46,9.82-6.71,4.68-18.48.55-25.57-11.47-19.68-4.14-38.22,1.14-56.68,2.27-7.94,4.14-13.54-4.38-17.84-9.78-4.95-8.9-15.1-10.38-23.44s-.46-17-.3-25.54c.1-5.19,1.77-10.13,6.86-12.21,9.9-4,13-11.22,12.1-21.4-.46-5.31.29-12.08,7.16-12.27s5.71,6.61,6.42,11.32a12,12,0,0,0,1.76,5c9.31,13.11,20.65,25.21,20.69,42.8,12.46,4.34,11.19,16.47,15.11,25.85,2.76,6.59,4.34,13.72,2.28,19.66-6,17.3-3.52,35.46-7,52.94-1,5.21-1.51,10.91-.51,16,2,10.13,1.92,18.48-9.43,23.14-5.69,2.34-2.27,11.06-5.18,12.69-12.76,7.13-11.61,21.93-19.23,31.57-4.71,6-10,12.87-18.7,10.48-9.42-2.6-10.71-10.83-9.79-19.51C307.1,290.4,306.86,287.68,306.86,282.46Z"/><path class="cls-4" d="M58.1,67.56C69.82,78.78,76,92.73,76.94,107.05,78,123.46,79.6,140,71.43,156.82c-6.14,12.66.8,28.85,2,43.4,1.1,13.32,1.66,26.24-2.54,39a39.45,39.45,0,0,0-.79,21.27C74,277.41,71.34,294.43,72,311.39c.12,3-1.49,6-2.26,9.05-1,3.95-3.45,6.75-7.57,5.83-3.74-.83-7-4.71-5.79-8,7.51-20.2-11.2-21.06-20.78-27.43-10-6.65-18.16-20.7-14.34-32,2.15-6.35,2.8-12-.71-18-1.29-2.22-2.77-5.53-2-7.57,6-16.37-.72-30.56-6.85-45-3.91-9.21-.78-18.59,4.25-25.35,6.18-8.3,8.49-16.52,7.67-26.2-.59-7,1.21-12.35,8.39-14.94,5.81-2.09,8.35-6.29,7.86-12.52-1.06-13.24-1.13-26,13.26-33.36C55.28,74.76,56.13,71,58.1,67.56Z"/><path class="cls-5" d="M128.49,233.71c-12,3.1-22.45.52-31.29-8.26-9.33-6.57-11.92-15.08-7.15-25.54,7.16-15.72,20-19.53,34.78-16.95-12.11-3.58-26.36,5.76-39.11-3.26-3.3-2.69-3.51-5.45-.22-8.31,4.46-4.11,10-3.37,15.36-3.37q92.28-.15,184.56,0c4,0,8.21-.43,12,1.2,6.27,2.7,7.3,6.33,1.18,10.59-4.16.2-10-1.73-9.74,5.4.62,15.29-2.88,30.77,2,45.87,4.33,3.83,6.34,8.58.61,12-5.46,3.27-10.44.41-13.38-5-2.19-4.09-1.91-8.7-1.95-13.18-.11-10.76.52-21.55-.24-32.27-.68-9.56-7-11.33-16-5,12.34,19.55,9.3,34.09-10.54,51.18-4.73,1.44-9.16,6.44-14.48,2.2-3.87-3.09-2.63-6.95-.24-10.52,5-5.58,12.74-8.64,15.65-16.23,1.82-4.76,3-10-1.64-13.57-5.35-4.09-9.26-.2-12.23,4-5.17,7.31-9.85,8.9-14.73-.23-2.39-4.46-6-7-11-3.84s-5.4,7.93-2.68,12.87c3.35,6.08,8.8,10,14.48,13.68,4.5,2.94,9.43,5.88,6.9,12.75-3.81,4.73-8.63,3.33-13.4,2.26-8.59-3.81-13.82-11.33-19.25-18.34-7.52-9.71-8.26-21.59-2.12-30.15,6.69-9.32,16-12.47,27.25-9.61,2.55.64,5.16,1.45,8.56.69-13.14-3.34-25.77-.58-38.32-.94-7.15-.21-10.89,3-10.88,10.37,0,13.86-1.29,27.82,3.35,41.32-.64,6-4.06,9.06-10,8.17-5.75-.86-8.06-5.43-8.63-10.64-1.12-10.28-.36-20.63-.53-30.94,0-3.14.12-6.3-.15-9.43-.46-5.16-3.21-8.54-8.54-8.48s-8,3.68-7.88,8.89c.37,11.61-1.58,23.31,1.34,34.82a30.44,30.44,0,0,1,1.9,6.2c.32,5.2-1.89,8.83-7.13,9.67-5.4.86-8.21-2.23-9.48-7.27C134.54,232.5,132,231.64,128.49,233.71Z"/><path class="cls-6" d="M303.66,252.78c2.27,22.81.64,45.68.87,68.52.09,8.37-4.66,13.47-12.54,15.2A75.7,75.7,0,0,1,276,338.21q-82.14.18-164.26.06c-24.5,0-29-4.61-28.91-29,.11-18.82.51-37.63.78-56.44,2.53-1.6,4.72-1.41,6.47,1.19,2.72,5,2.48,10.4,2.54,15.77.14,11.68-.08,23.35.1,35,.29,18.8,3,21.41,22.28,21.75,4.94.08,9.88,0,14.82,0,47.61,0,95.23.09,142.85-.05,19.3-.05,21-2.29,21.77-21.92.7-16.92-2.82-34.09,2.61-50.78C299,251.33,301.16,251.13,303.66,252.78Z"/><path class="cls-7" d="M296.91,147.29c5.17,2.28,6.17,9,12.51,10.72,3.84,1.05,3.58,5.67.15,8.72l-2.17-1a46.47,46.47,0,0,0-4.31-2.26c-6.13-2-12.44-1.23-18.67-1.23-61.71-.07-123.42,0-185.14-.12-6.5,0-13.58,1.71-19.07-3.82,2.2-2.7,6.31-4.14,6.54-8.09,1.22-21.55,4.72-43.19-2-64.5,0-5.88-1.94-12.12,3.3-17,4.72-3,9.44-3.3,14.16,0a7.66,7.66,0,0,1,1.1,6.1c-4.85,8.18-3.3,17.26-3,26,.49,14.46-2.26,29.05,1.57,43.31a13.3,13.3,0,0,0,3.11.68,23.1,23.1,0,0,1,5,.42,11.44,11.44,0,0,1,3.12,1.37c1.77,1.42,3.21,3.22,5.17,4.42,6.11,3,9.88-2.06,14.5-4.13,3,0,5.51,1.69,8.38,2.07,8.28,1.57,5-7.38,8.86-9.76,7.16-1.38,4.3,8.62,10.05,8.81,2.14-.79,4.16-1.92,6.5-1.8,5.85,1.66,4.14-2.89,4.17-5.45.21-15.67,0-31.35.14-47,0-5.77-.66-11.69,2.18-17.16,1.52-1.83,3.17-3,5.42-1,5.18,10.51,2.07,21.72,2.62,32.6.6,11.9-.19,23.85.38,35.67a1.83,1.83,0,0,0,2.07,1.17c3.23-10.85-2.47-22.73,4.19-33,3.45-1.83,6.58-1.91,9.06,1.6-2,11.17-4.6,22.35.19,33.46a19.06,19.06,0,0,0,5.89,3.79c6.64,3.49,11.29-1.39,16.48-3.9,3.13,0,6.08,3.22,9.39.56,4.43-12-1.64-25.07,4-36.89a3.68,3.68,0,0,1,3.77-1.28,7.59,7.59,0,0,1,2.64,3.24c3.39,10.47-1.21,21.76,3.25,32.11,1.75,2.38,3.52,4.74,6.3,6,5.25,3.14,9.77-.69,14.6-1.53,3,0,5.86.88,8.75,1.45,9.17,1.57,6-7.93,9.9-11.05,7.26-1.51,5.14,6.94,9.29,8.67C293.19,148.45,295,147.15,296.91,147.29Z"/><path class="cls-8" d="M104.66,147.5l-2.29,0c-3-2.11-3.11-5.29-3.14-8.45q-.23-28.26,0-56.53a11.27,11.27,0,0,1,2.47-7.51l.14-5.3c4.45-3.3,9.56-1.61,14.32-1.62C176.3,68,236.43,68,293.87,68c-2.16.45-7.08-.13-12-.09-65.06.44-130.12-.78-195.16.65a7,7,0,0,1-4.3-2c.64-9.85,9.77-5,14.24-8.2,3.07,4.41,7.19,5.7,12.6,5.68,56.35-.19,112.7-.11,169-.15,3.49,0,7.27.67,9.86-2.74,3.88-1.63,7.74.53,11.66,0s9.89-4,11,2.31c1.06,6,1.79,13.77-7.09,16.34.27-3.65.58-7.49-4.59-7.67-4.67-.17-10.16-1.52-11.4,5.56a5.44,5.44,0,0,1-4.37,1.44c-1.58-.18-3.16-.4-4.77-.46a13.64,13.64,0,0,1-6.58-1.11c-7.4-2.89-14.91-2.62-22.46-.82a20.7,20.7,0,0,0-6.91,4.76c-4.91,8.87-2.32,17.65.18,26.45-1.27,2.9-3.14,3.92-6,1.89-.73,0-1.47-.08-2.2-.09-5.83-4-3.81-10.22-4.4-15.69-.51-4.72,1.13-9.75-2.1-14-2.66-1.55-5.66-1.09-8.52-1.39-5.57-1.85-11-4.66-17.07-1.66a18.47,18.47,0,0,0-5.84,4c-5,8.07.61,18.21-5.18,26.09a4.25,4.25,0,0,1-3.75.44c-6.67-8.4-.57-19.11-5.07-27.88-.92-.76-1.81-1.56-2.71-2.34s-1.71-1.66-2.55-2.5l-3.07,3c-5.37-.1-11.65-3.17-14.63,4.49-4.87,3.6-6.45-3.14-10.17-3.2a18.12,18.12,0,0,1-6.83-1.27c-8.79-1.63-17.84-6.06-25.6,2.58-1.69,17-.2,34.09-.82,51.1-.2,5.63,1.32,11.89-4.44,16l-2.2-.05c-6-16.53-.28-33.64-2.58-46.93C105.1,113.85,110.63,131,104.66,147.5Z"/><path class="cls-9" d="M298.59,179.79c2-4,3.47-7.91-3.19-8.67a58.07,58.07,0,0,0-6.73-.09l-203.17.36c-2.63-4.17-16-2-7.48-12.74a14.13,14.13,0,0,0,8.23,3.68c67.73.58,135.44,0,203.14.29,6.63,0,13.54-1.21,19.62,2.85l.56,1.26C302.34,168.08,307.3,179.68,298.59,179.79Z"/><path class="cls-10" d="M79.91,164.24c-2.19-1.34-1.94-3.5-1.89-5.59.73-.08,1.46-.2,2.19-.35,4.86.39,9.73,1.1,14.6,1.1,66.75.07,133.5,0,200.25.19,4.77,0,10.93-2.86,14.14,3.81-2.64,2.48-5.93,1.62-9,1.62q-106.85.06-213.7,0A18.08,18.08,0,0,1,79.91,164.24Z"/><path class="cls-4" d="M118.84,53.18c-10.08,3.43-15-7.32-23.1-10.92-1.92-.85-2.61-4.9-.82-5.81,6.5-3.32,7.87-13.79,17.48-12.49,3,.42,6.2,1.94,9,1.4,7.41-1.43,15.24-5.88,15.61,7.66C137.45,49.09,134.5,53.06,118.84,53.18Z"/><path class="cls-11" d="M303.66,252.78h-4.42q-105.59-2.51-211.17,0l-4.42,0c-1.2-2.18-2.39-4.37-4.7-8.59h52.51c13.83-.72,27.48-5.92,41.56-1.33,5.78,1.88,11.13-2.27,16.87-2.19,9.32-1.25,18.52,0,27.73,1.29,9.84.49,19.69,1,29.44-1.09a172.94,172.94,0,0,1,24.83-.3c8.83,2.25,17.95,2.29,26.91,3.62l9.62.85Z"/><path class="cls-4" d="M165,52.27c16-15.13,31.79-14.06,47.84-10.73,3.89.81,7.84,3.33,7,8.43s-4.93,6.11-9.2,5.82C196.61,54.83,182.53,53.64,165,52.27Z"/><path class="cls-4" d="M255.53,38.83c.41-5.26-1.31-10.52,4.57-13.43,6.4-3.17,8.57,2.57,12.16,5.36a18.1,18.1,0,0,1,2.86,2.81c3.5,4.23,13.42,5,8.47,13.81-4.67,8.33-13.3,6.11-20.57,5.45C253.81,52,256.1,44.16,255.53,38.83Z"/><path class="cls-12" d="M190.84,244.2H131.46c2.35-4.44,5-9-3-10.49,4.72-5,7.1-3.51,8.24,2.75.67,3.62,3.64,4.52,7,4.5,4.57,0,6.14-2.5,5.63-6.74,12,3.19,14.06-3.22,13.37-13.22-.56-8,.12-16.14-.25-24.2-.16-3.44.15-8.1-4.7-8.37-5.8-.32-5.61,4.82-5.88,8.69-.59,8.5.18,17-.54,25.54-.29,3.54-.55,7.25-4.11,9.43-5.75-16.05-3-32.7-1.73-48.83.61-7.61,10.67-2.62,16.36-3.61,5.35-.93,6.8,2.81,6.8,7.52,0,15.28.06,30.56.11,45.84,0,3.87.83,7.23,5.53,7.79,5,.6,8-1,7.32-6.59C190,232.67,190.16,238.65,190.84,244.2Z"/><path class="cls-13" d="M85.72,179.7c13.9-.06,27.81-.19,41.72-.11,2.9,0,6.67-1.3,8.15,2.66.54,1.46.46,3.89-.43,5-3,3.79-5.49-.45-8.13-1.2-15.71-4.49-32.3,4.73-36,19.64-2,8.13,4.35,13.12,6.14,19.76-6.18-3.12-5.91,3.79-8.87,5.69-5.17-7.31-1.69-15.62-2.66-23.41-.92-7.41,2-15.24-2.51-22.24Z"/><path class="cls-14" d="M163.87,28.87c19.85-3.45,39.73-3.05,59.61-.21a4.29,4.29,0,0,1-.2,5.71A337.71,337.71,0,0,1,164,34.23C162.28,32.47,162.29,30.68,163.87,28.87Z"/><path class="cls-15" d="M282.55,77.29l5.23.44a628.56,628.56,0,0,1,9.13,69.56c-1,1.78-.66,4.4-3.26,5.18-5.44-1.61-5.16-6.16-5.84-10.56-1.8-11.68-2.91-23.46-5.48-35C282.84,97,274.62,87.09,282.55,77.29Z"/><path class="cls-12" d="M298.8,244.2h-27c2.08-14.12,1.67-28.35,1.52-42.54-.16-15.05-2.18-16.43-17.88-13.18-3.5-.87-6.88-4.25-4.27-6.36,7.13-5.78,16.18-2.11,24.39-2.27,6.11-.12,4.63,5.52,4.68,9.2q.25,22.19.05,44.36c-.05,6,3,8.3,8.41,7.39,8.1-1.37,4-5.9,2.15-9.73C299.16,232,294.63,240.74,298.8,244.2Z"/><path class="cls-16" d="M303.77,79.84c3.42-1.48,3.47-5,4.42-7.79,2.3-6.73,2.56-11.95-7.39-8.3-4.48,1.64-8.69-.34-12.61-2.61,5.16-10.29,13.69-.61,20.65-3,3.32-1.17,7.16,5.71,4.93,11.34-1.95,4.93-4,9.82-6.2,14.63-1.37,3-3.88,6.1-6.95,3C297.39,83.69,301.91,82,303.77,79.84Z"/><path class="cls-17" d="M163.87,28.87c0,1.78,0,3.57.08,5.36-12.24-1.5-14.07,5.68-13.24,15.52.78,9.23-1.77,14.81-13.36,9.88,2.81-4.63,9-6.35,7.7-13.07C142.2,31.47,151.54,28.35,163.87,28.87Z"/><path class="cls-18" d="M223.28,34.37c.06-1.9.13-3.81.2-5.71,13.41-1.24,20.82,4.18,18.58,18.27-1.06,6.68,4.45,8.48,8,12.61-12.25,5.19-13.85-1.42-13.14-10.09C237.72,39.35,235.23,32.72,223.28,34.37Z"/><path class="cls-19" d="M303.2,187.06V231.9l-2.72.08v-44.9Z"/><path class="cls-20" d="M83.16,185.49c6.79,1.07,5,6.47,5.08,10.6.2,11.68.08,23.37.09,35-7.21,2.93-5.25-3-5.28-5.94C82.89,212,83.09,198.73,83.16,185.49Z"/><path class="cls-21" d="M96.68,58.35c-3.5,4.64-10,2.24-13.91,5.89-3.64,6.57,5.25,12.9.38,19.49-7.08-1.45-8.54-7.94-10.05-13.09-2.4-8.19.05-14.25,10.52-13.12C88,58,92.33,58.09,96.68,58.35Z"/><path class="cls-4" d="M209.09,10.21c4.33,0,7.4,1.41,8.17,5.52.65,3.44-.87,6.52-4.42,6.67-4.5.19-7-3.28-7.87-7.31C204.25,11.84,206.57,10.51,209.09,10.21Z"/><path class="cls-22" d="M83.15,83.73c-1.48-5-3-9.89-4.43-14.86-1-3.6,1-4.6,4-4.63,0,.75.09,1.5.13,2.25,1.71,1.87,3.71,3.43,5.44,5.27-3,4.18,1.35,10.26-3.58,13.95A3.58,3.58,0,0,1,83.15,83.73Z"/><path class="cls-4" d="M162,16.36c6-1,8.86.81,11.12,3.55.3.35-.72,2.68-1.42,2.85C166.84,23.89,164.94,20.4,162,16.36Z"/><path class="cls-23" d="M190.84,244.2l-9.23-10c-8.7-5.35-4.44-13.88-4.52-20.88-.36-33.67-.12-33.67,33-33.64,6.73,0,13.51-.45,20.18.2,3.61.36,10.94-3.34,10,3.82-.55,4.12-6.92,7.69-12.91,6.8-1.26-.19-2.38-1.22-3.59-1.81-9.18-4.51-17.75-3.38-24.52,4.18-7.14,8-7,17.32-1.86,26.25,4.9,8.57,12,15.25,20.39,20.52,1.65,1.52,1.65,3,0,4.53Z"/><path class="cls-24" d="M227.69,239.09c.35-6.46-5.23-7.64-9.19-10.15-6.57-4.17-12.13-9.27-15-16.62s-1-13.73,6.47-16.59c7.35-2.8,13.13-.39,14.75,8.22.4,2.13.15,4.7,3.18,5,3.65.4,4-2.83,5.22-5.06,3.58-6.85,7.83-12.85,16.57-7.68,8.49,5,7.41,12.76,3.55,19.93-3.61,6.7-8.71,12.41-16.32,15.09C231.57,231.17,234.81,241.25,227.69,239.09Z"/><path class="cls-25" d="M255.45,188.47c-2.22-6.87,2.67-6.24,6.55-5.8,5,.57,13.61-2.74,14.08,3.5,1.35,18.37,3.79,37-1.39,55.31-.31,1.09-1.89,1.82-2.88,2.71H247.52c-5-2.48-4-4.95,0-7.43,4.38-5.32,9.62-10.15,13-16.06C267.14,209,265.72,197.88,255.45,188.47Z"/><path class="cls-26" d="M147.22,232.09c.14-13.4.54-26.81.33-40.2-.11-7,2.64-9.42,9.49-9.45s9.62,2.47,9.42,9.43c-.35,12.06.16,24.14-.21,36.19-.14,4.51,2.62,10.28-3.23,13.26-7.57,3.85-9.1-4.74-13.68-7.1Z"/><path class="cls-24" d="M118.27,226.79c-10-.57-16.32-5.72-17.18-16.23-.83-10.16,6.83-18,17.1-17.75,10.72.23,16.51,6.1,16.68,16.65S129.23,225.79,118.27,226.79Z"/><path class="cls-12" d="M247.52,236.77c-1.4,2.47-2.15,4.95,0,7.43l-29.79,0,0-4.53c3.27-.79,6.74,1.82,9.93-.56,4.35-1.12,3.15-8.79,9.26-7.83-1.16,2.56-4.58,5.21-1.19,7.93C240.24,242.77,243.15,235.63,247.52,236.77Z"/><path class="cls-27" d="M88.07,252.75c2.74-6,8.2-4.52,12.92-4.53q93.59-.1,187.17,0c4.12,0,9.41-1.86,11.08,4.53l-1,60.4c-.26,15.12-2.93,17.93-18.28,18q-85.44.14-170.87,0c-16.95,0-19.47-2.83-19.91-19.36C88.65,292.11,90.59,272.38,88.07,252.75Z"/><path class="cls-28" d="M115,75.41c10.22-4.35,20.42-8.08,29.8,1.77-.8,23.82-1.5,47.66-11.37,70-3.51,10-9.69,11.49-18.15,5.64,12.71-20.27,5.27-42.71,6.9-64.14a12.06,12.06,0,0,0-1.12-3.39C119.8,81.54,114.81,80.05,115,75.41Z"/><path class="cls-29" d="M247.13,75.22c9.28-3.91,18.54-7.6,27.05,1.57,1.94,5.9,1.32,12,1.32,18-1.37,15.39-5.23,30.47-5.71,46-.13,4.11-1.66,7.82-6,9.55-4.77,5.06-9.8,8.53-16.32,2.57.3-3.24,2.49-5.48,4.22-8,5.33-9.57,3.85-18.95-.81-28.22a10.53,10.53,0,0,1-.1-10.82c4-7.63,6.49-15.31.64-23.21C249.64,80.42,246.83,78.71,247.13,75.22Z"/><path class="cls-30" d="M158.27,83.12c1.42-3.65-1.84-9.2,4.34-10.88,5.45-1.49,9,1.27,11.83,5.55-.34,25.43,1.47,50.9-1.19,76.55-5.22-.31-3.75-7.6-8.8-7-7.73-11.38-4.9-24.84-6.7-37.28C156.5,101.41,150.83,91.87,158.27,83.12Z"/><path class="cls-31" d="M201.68,74.69c7.09-4.84,13.32-4.18,18.55,2.89a10.31,10.31,0,0,1,4,8.15c.5,18.29.62,36.6-.09,54.89a9.86,9.86,0,0,1-3.57,7c-4.39,8.45-10.31,11.57-18.89,5.41.19-3.22,2.33-5.5,3.83-8.11,4.62-8.14,4.53-16.5,1.16-25-3.76-5.77-4-11.56-.05-17.36a22.8,22.8,0,0,0,.44-19.4C205.66,80.1,202.29,78.26,201.68,74.69Z"/><path class="cls-32" d="M209.91,104.58c-3.41,4.39-4.53,8.82-.18,13.32-.85,10,1.77,20.37-2.65,30.08L201.7,153,195.79,150c-1.25-11.69-1.59-23.35.69-35-1.86-3.52-4.66-2.83-7.56-1.7-2.39-2-2.29-4.23-.5-6.57a4.21,4.21,0,0,0,2.42.38c8.79-8.6,1.35-20.07,5.22-29.53,1.17-2.33,3.44-2.53,5.62-2.89,2.59,1.84,6.29,2.29,7.43,5.93C210.43,88.57,208.94,96.62,209.91,104.58Z"/><path class="cls-33" d="M220.59,147.62l-.36-70c2.2-3.25,5.41-3,8.71-2.53,4.45,8.36,2.43,17.42,2.17,26.06-.53,17.12,2.76,34.41-2,51.36C225,153.15,221.12,153.27,220.59,147.62Z"/><path class="cls-34" d="M123.45,82.79c4.62,19.77,1.71,39.78,1.57,59.68,0,5.24-5.88,7.43-9.75,10.35L112,147.53c.27-19.92.41-39.85.94-59.77.11-4.11-2.44-8.92,2.1-12.35,2,3.41,8.23,2,8.46,7.38-3.52,17.46.13,35.19-1,44.34C123.06,118,120.32,100.26,123.45,82.79Z"/><path class="cls-35" d="M79.91,164.24q97.22-.24,194.43-.51c11.62,0,23.24-.21,34.86-.33a5.4,5.4,0,0,1-.19,2.08c-20.13.31-40.25.86-60.38.91q-77.3.2-154.57,0C89.33,166.35,84.15,168,79.91,164.24Z"/><path class="cls-36" d="M88.34,71.76c-3.87.36-6-1.1-5.44-5.27H301.05c0,1.09,0,2.17,0,3.26H101.85C97.26,69.87,92.32,67.58,88.34,71.76Z"/><path class="cls-37" d="M133.42,147.18c4-23.3,4.21-47.21,11.37-70l6-1.78c3.93,7.16,5.77,14.74,4.66,22.93-1.32,3.94-2.08,8.32-7.15,9.38-2.76-1.45-1.59-4.08-1.93-6.3a179.57,179.57,0,0,0,.16,25.62c-3.05,7.45-1.76,16.14-6.61,23.06C135.22,154.85,134.29,151.09,133.42,147.18Z"/><path class="cls-38" d="M152.82,99.33q-1-12-2-23.93c6.39-1.19,5,5.15,7.45,7.72,1.08,21.51,6.73,42.57,6.18,64.24-.59,1.88-.49,4.16-2.86,5-8.65-7-5.56-17.8-8.39-26.68-1.58-5-1.06-10.4-2.17-15.54C151.75,106.58,151.19,102.77,152.82,99.33Z"/><path class="cls-39" d="M252.67,107.36c-1.59,2.52-2.58,5.08-.43,7.83a18.53,18.53,0,0,1-1,5.28,62.84,62.84,0,0,0,.23,23.83,26.49,26.49,0,0,1,1.06,3.38l-5.5,5.24c-2.54-.65-4.9-1.49-4.81-4.93-.12-.61-.23-1.21-.36-1.82-1.9-9,.4-18.34-1.67-27.36-1.09-2-1.83-4.29-3.51-6,.06-1,.13-2,.19-3,2.19.08,4.19-.26,5.32-2.56-1.47-9.19-3.55-18.38.35-27.49-.33-3.2,1.08-4.72,4.14-4.61l6.15,4.54C253.92,89,253,98.16,252.67,107.36Z"/><path class="cls-40" d="M101.71,75.05l.66,72.49c-1.36,4.79-5.76,6.58-6,1.12-.92-23.56-.34-47.19,0-70.8C96.4,75.28,99.52,75.28,101.71,75.05Z"/><path class="cls-41" d="M188.42,106.73c.17,2.19.33,4.38.5,6.57-.18,10.25-.39,20.5-.53,30.75-.06,4,.82,8.47-5.41,8.48a9.29,9.29,0,0,1-2.76-7.29c1.18-23.44-3.18-47.06,2.32-70.36,6-.31,5.84,3.89,5.83,8C188.37,90.83,188.4,98.78,188.42,106.73Z"/><path class="cls-42" d="M229.1,152.47q-.09-38.72-.16-77.42c6.37.26,4.56,5.06,4.72,8.66.4,8.69.7,17.39,1,26.08-.37,11.14-.68,22.28-1.16,33.42C233.38,146.83,235.54,151.77,229.1,152.47Z"/><path class="cls-43" d="M104.66,147.5V79.36l5.09,0v68.14Z"/><path class="cls-44" d="M263.82,150.35Q268,122,272.24,93.61c3.38-.49,4.76,1.93,6.24,4.24a12.77,12.77,0,0,1,1.17,3.92c-.65,8.11-2.07,16.17-1.78,24.37a27,27,0,0,1-.5,4.21c-2.71,7.26.49,16.11-6,22.36C268.62,152.72,265.7,153.19,263.82,150.35Z"/><path class="cls-45" d="M153.26,109.67c5.81,13.65,3.55,28.87,8.33,42.72-12.54,2.93-5.77-10-10.85-13.2-4.41-3.11-4.23-7.84-4.39-12.45a20.27,20.27,0,0,1,.44-7.83C147.75,115,148.58,111,153.26,109.67Z"/><path class="cls-46" d="M271.39,152.71c.85-8-.87-16.39,3.09-24,2.82-2.24,5.73-2.53,8.76-.41,2.43,3.77,2.7,7.46-.4,11C279.31,144,290,160.85,271.39,152.71Z"/><path class="cls-47" d="M196.48,115c3.85,11.74,4.11,23.4-.69,35C188.35,141.92,188.75,121.71,196.48,115Z"/><path class="cls-48" d="M146.8,126c3.3,3.79,4,8.35,3.94,13.15-.1,2.57-.09,5.15-.32,7.72-.26,2.84,1,6.4-2.56,8-4.66,2.06-5.4-3-7.91-4.8-.37-8.57-1.84-17.4,5.61-24.16Z"/><path class="cls-44" d="M282.84,139.3l-.84-9.83c-.93-7.86-2.33-15.79,3.44-22.64,3.22,10.39,4.51,21.1,5,31.91.23,4.8-.14,9.68,3.19,13.73C281.4,155.17,287.66,142.69,282.84,139.3Z"/><path class="cls-49" d="M182.54,74.88q.22,38.84.44,77.66l-3.21,0c-1.5-25.85-2.06-51.7.3-77.53A11.33,11.33,0,0,1,182.54,74.88Z"/><path class="cls-50" d="M180.07,75l-.3,77.53c-5.36-5.24-2.25-11.81-2.36-17.66-.37-20,0-40,.1-60Z"/><path class="cls-51" d="M236.7,112.86l5.17,2.68c2.93,10.71,1.66,21.49.65,32.27l0,.18c-6.18-.86-5.85-5.49-5.83-10C236.69,129.62,236.69,121.24,236.7,112.86Z"/><path class="cls-52" d="M285.44,106.83c-.74,7.61,1.41,15.65-3.44,22.63l-7.52-.77.18-3c3.8-8.45,3.34-17.37,2.87-26.29l-1-.87c-2.72-8.35-1.44-16.17,3.16-23.54l2.85,2.32Q284,92.07,285.44,106.83Z"/><path class="cls-53" d="M196.06,77.58c5.24,7.82,2.18,16.52,2.47,24.82.18,5.14-3.89,5.13-7.69,4.71,0-6.93,0-13.86.06-20.79C190.92,82.42,190.44,78.19,196.06,77.58Z"/><path class="cls-54" d="M242.81,79.83c2.28,9.2,3.14,18.37-.36,27.49-11.57-5.69-3.74-16.07-5.63-24.09C235.67,78.34,239.79,79.26,242.81,79.83Z"/><path class="cls-55" d="M279.7,75c2,8.26-2.84,15.6-3.16,23.55l-4.3-4.91c-.12-5.7-2.23-11.62,1.94-16.82Z"/><path class="cls-56" d="M253.24,147.68l-3.17-.21a76.49,76.49,0,0,1,0-29.2l2.86-3.08C260.2,126,260.48,136.78,253.24,147.68Z"/><path class="cls-57" d="M253.36,107.36c-5-9.24-5.27-18.44.19-27.6C260.48,89,259.63,98.2,253.36,107.36Z"/><path class="cls-58" d="M207.08,148c1.25-10-3.31-20.5,2.65-30.08C212,128.21,214.87,138.56,207.08,148Z"/><path class="cls-59" d="M209.91,104.58c-5.09-7.83-3.92-15.86-.8-24C213.29,88.48,212.37,96.5,209.91,104.58Z"/><ellipse class="cls-60" cx="116.55" cy="114.09" rx="0.89" ry="43.96"/><path class="cls-61" d="M123.45,82.79v55.8c-1.11-18.61-6.08-37.3,0-55.8Z"/><path class="cls-62" d="M146.8,126l-1.24-.11c-7.29-9.12-1.5-17.88,1.53-26.83l.9,7.65c3.73,4.24-.93,9.7,2.06,14Z"/><path class="cls-63" d="M150.05,120.8c-3.69-4.24-2.2-9.24-2.07-14l4.84-7.43c.15,3.45.29,6.9.44,10.34Z"/><path class="cls-7" d="M242.52,147.81q-.33-16.12-.65-32.27C246.91,126.2,245.91,137,242.52,147.81Z"/><path class="cls-64" d="M250.05,118.27q0,14.6,0,29.2A36.36,36.36,0,0,1,250.05,118.27Z"/><path class="cls-65" d="M277.53,99.38c2.21,9.11,7.28,18.53-2.87,26.29C273.25,116.65,276,108.08,277.53,99.38Z"/></g></g></svg>